<?xml version='1.0' encoding='utf-8'?>
<svg xmlns="http://www.w3.org/2000/svg" width="86.966mm" height="63.653mm" version="1.1" viewBox="0 0 86.966 63.653"> <g transform="translate(-55.96 -102.73)"> <g transform="matrix(.82625 0 0 .82625 -306.88 8.0865)"> <path d="m449.25 127.47c-0.62639 5.206 2.4572 7.2831 2.8644 14.221 9.4617 8.1189 26.515 17.615 41.83 24.948 9.1015 3.3682 20.767 8.5166 26.562 11.052 2.0679 0.90486 7.3941-7.9861 7.3941-7.9861s-1.5437 1.8787-3.3342 0.97066c-16.532-8.384-18.67-8.2766-28.057-12.354-22.117-12.701-26.122-12.603-36.039-20.104-4.1307-3.124-9.6165-5.6754-11.22-10.747z" fill="#bfbfbf"/> <path d="m525.43 171.1c0.6229 0.31868 3.0145-1.3556 2.4291-1.7388-17.322-11.336-17.481-14.079-26.885-20.167-11.675-7.5586-26.959-15.756-36.505-20.206-2.1669-1.0102-9.4256-5.2919-14.076-2.9922-3.5308 1.7459 2.5965 6.9096 5.3635 9.0759 7.977 6.2451 23.343 14.506 35.552 20.778 11.081 5.6932 15.771 5.8621 34.122 15.25z" fill="#707070"/> <path d="m525.01 170.55c0.60327 0.30866 2.4814-1.0096 1.9144-1.3807-16.776-10.979-17.185-13.717-26.408-19.666-11.32-7.3006-26.109-15.26-35.354-19.57-2.0987-0.97835-9.634-5.8665-14.138-3.6393-3.4195 1.6908 3.4919 6.9615 6.1717 9.0594 7.7255 6.0483 22.619 14.026 34.431 20.123 10.849 5.6002 15.611 5.9806 33.384 15.073z" fill="#515151"/> <path d="m449.91 156.82c7.4364 8.9783 35.917 24.445 42.552 25.242 24.382 2.9292 38.809 16.877 50.027 4.4501 4.719-5.2273-0.34335-14.729-4.0075-20.743-8.2415-13.527-23.32-22.012-37.329-29.406-17.829-9.411-42.382-22.733-57.706-18.111-9.2927 5.302-1.8466 28.535 6.4632 38.568zm-0.0383-30.483c2.2744-1.7537 6.5122-0.75255 8.0007-0.24667 1.6557 0.56267 3.6179 1.5764 7.8219 3.412 6.1614 2.6902 12.986 5.9283 21.966 11.599 7.2926 4.6054 10.215 4.8414 26.505 18.652 1.7735 1.5036 7.2084 5.1625 13.835 9.8422-1.9576 3.0434-2.3326 3.6071-4.1368 5.7799-1.35 1.4752-71.32-28.504-72.809-39.78-2.7092-5.7874-1.803-8.9039-1.1818-9.2586z" fill="#0099da" fill-opacity=".63374"/> <path d="m451.7 128.84-2e-3 -0.83546 3.9435-1.4397 3.9263 1.443 0.0144 0.83209-3.9412 2.2752z" fill="#bfbfbf"/> <path d="m478.47 146.15-19.498-11.162v-1.525l8.1267-3.1669 19.498 9.6369v1.525z" fill="#bfbfbf"/> <path d="m478.47 144.62-19.498-11.162 8.1267-4.6919 19.498 11.162z" fill="#4b4b4b"/> <g transform="matrix(2.8819 0 0 2.8819 -1850.3 -235.18)"> <path d="m806.74 130.8-4.5145-2.5891v-1.0583l2.4469-0.35439 4.5145 1.5308v1.0583z" fill="#bfbfbf"/> <path d="m806.74 129.75-4.5145-2.5891 2.4469-1.4127 4.5145 2.5891z" fill="#4b4b4b"/> <g transform="matrix(.13465 0 0 .13465 704.57 113.39)" fill="#404040"> <path d="m738.24 112.37v2.5l-4.3301-2.5v-2.5z"/> <path d="m732.79 111.75v-2.5l-4.3301-2.5v2.5z"/> </g> <g transform="matrix(.13465 0 0 .13465 706.76 114.64)" fill="#404040"> <path d="m738.24 112.37v2.5l-4.3301-2.5v-2.5z"/> <path d="m732.79 111.75v-2.5l-4.3301-2.5v2.5z"/> </g> </g> <path d="m451.7 128 3.9412-2.2751 3.9412 2.2751-3.9412 2.2752z" fill="#4b4b4b"/> <g transform="matrix(.1858 0 0 .18577 320.13 100.67)"> <path d="m699.37 124.87 38.299 22.112v0" fill="#404040" stroke="#404040" stroke-linecap="round" stroke-linejoin="miter" stroke-miterlimit="4" stroke-width="4.9689"/> <g transform="translate(-12.969 11.428)" stroke-width="1.1236"> <path d="m754.44 135.5c0 4.1421-5.816 7.5-12.99 7.5s-12.99-3.3579-12.99-7.5c0-0.22321 0.013-0.49431 9e-3 -0.71503-7e-3 -0.41301-0.0588-2.222-0.05-3.0417 0.0385-3.5917 6.8405-3.7433 13.031-3.7433 6.1461 0 12.978 0.29801 12.984 3.8732l3e-3 1.8434c3.5e-4 0.20849 3e-3 1.5727 3e-3 1.7835z" fill="#404040"/> <path d="m754.44 131.8c0 4.1421-5.816 7.5-12.99 7.5s-12.99-3.3579-12.99-7.5 5.816-7.5 12.99-7.5 12.99 3.3579 12.99 7.5z" fill="#808080"/> <path d="m750.61 129.66c0 2.9192-4.0989 5.2857-9.1551 5.2857s-9.1551-2.3665-9.1551-5.2857c0-0.13072 8e-3 -0.26034 0.0244-0.38869 0.13621-1.082 1.1406-5.1372 2.049-5.9643 1.5373-1.3997 4.1608 1.0674 7.0817 1.0674 2.9459 0 5.1693-2.6812 6.8439-1.4333 1.1068 0.82482 2.1978 5.3284 2.2985 6.4381 8e-3 0.093 0.0127 0.18666 0.0127 0.28088z" fill="#404040"/> <path d="m748.83 124.41c0 2.353-3.3038 4.2604-7.3793 4.2604s-7.3793-1.9074-7.3793-4.2604 3.3038-4.2604 7.3793-4.2604 7.3793 1.9074 7.3793 4.2604z" fill="#808080"/> <path d="m745.39 124.41c0 1.256-1.7635 2.2741-3.9389 2.2741s-3.9389-1.0182-3.9389-2.2741 1.7635-2.2741 3.9389-2.2741 3.9389 1.0181 3.9389 2.2741z" fill="#404040"/> </g> </g> <g transform="matrix(2.5015 0 0 2.5015 -1537.7 -184.28)" stroke-width="1.1521"> <path d="m808.06 133.25 4e-3 -0.53048 2.3948-0.85424 2.4027 0.87983-4e-3 0.50489-2.3984 1.3847z" fill="#bfbfbf"/> <path d="m808.06 132.72 2.3984-1.3847 2.3984 1.3847-2.3984 1.3847z" fill="#4b4b4b"/> <path d="m812.11 132.58c0 0.52754-0.74072 0.95519-1.6544 0.95519-0.91372 0-1.6544-0.42765-1.6544-0.95519 0-0.0284 2e-3 -0.063 1e-3 -0.0911-8.9e-4 -0.0526-7e-3 -0.28299-6e-3 -0.38739 5e-3 -0.45744 0.87121-0.47674 1.6597-0.47674 0.78277 0 1.6529 0.038 1.6536 0.49329l3.9e-4 0.23477c4e-5 0.0266 3.8e-4 0.20029 3.8e-4 0.22714z" fill="#404040"/> <path d="m812.11 132.11c0 0.52754-0.74072 0.9552-1.6544 0.9552-0.91372 0-1.6544-0.42766-1.6544-0.9552s0.74072-0.95519 1.6544-0.95519c0.91373 0 1.6544 0.42765 1.6544 0.95519z" fill="#808080"/> <path d="m811.62 131.83c0 0.37179-0.52202 0.67318-1.166 0.67318-0.64395 0-1.166-0.30139-1.166-0.67318 0-0.0166 1e-3 -0.0332 3e-3 -0.0495 0.0173-0.13781 0.14526-0.65428 0.26095-0.75962 0.19579-0.17826 0.52992 0.13594 0.90192 0.13594 0.37519 0 0.65836-0.34147 0.87164-0.18254 0.14096 0.10505 0.27991 0.67862 0.29273 0.81995 1e-3 0.0118 2e-3 0.0238 2e-3 0.0358z" fill="#404040"/> <g transform="matrix(.12736 0 0 .12736 721.45 110.93)" stroke-width="1.1521"> <path d="m706.23 158.85c0 2.353-3.3038 4.2604-7.3793 4.2604s-7.3793-1.9074-7.3793-4.2604 3.3038-4.2604 7.3793-4.2604 7.3793 1.9074 7.3793 4.2604z" fill="#808080"/> <path d="m702.79 158.85c0 1.256-1.7635 2.2741-3.9389 2.2741s-3.9389-1.0182-3.9389-2.2741 1.7635-2.2741 3.9389-2.2741 3.9389 1.0181 3.9389 2.2741z" fill="#404040"/> </g> <path d="m812.11 132.58c0 0.52754-0.74072 0.95519-1.6544 0.95519-0.91372 0-1.6544-0.42765-1.6544-0.95519 0-0.0284 2e-3 -0.063 1e-3 -0.0911-8.9e-4 -0.0526-7e-3 -0.28299-6e-3 -0.38739 5e-3 -0.45744 0.87121-0.47674 1.6597-0.47674 0.78277 0 1.6529 0.038 1.6536 0.49329l3.9e-4 0.23477c4e-5 0.0266 3.8e-4 0.20029 3.8e-4 0.22714z" fill="#404040"/> <path d="m812.11 132.11c0 0.52754-0.74072 0.9552-1.6544 0.9552-0.91372 0-1.6544-0.42766-1.6544-0.9552s0.74072-0.95519 1.6544-0.95519c0.91373 0 1.6544 0.42765 1.6544 0.95519z" fill="#808080"/> <path d="m811.12 131.86 5.2762 1.971v0" fill="#404040" stroke="#404040" stroke-linecap="round" stroke-linejoin="miter" stroke-miterlimit="4" stroke-width=".5334"/> <g transform="matrix(.099019 -.016568 .016598 .098838 740.44 128.01)" stroke-width="1.4627"> <path d="m729.9 182.35 5.0932 2.8939 3.0572-5.5329-4.901-2.8056z" fill="#404040"/> <g transform="matrix(.3698 0 0 .3698 463.19 112.52)" stroke="#404040" stroke-linecap="round" stroke-linejoin="bevel" stroke-miterlimit="4"> <path transform="rotate(-60)" d="m213.43 734.87a7.6831 4.4359 0 0 1-7.6831 4.4358 7.6831 4.4359 0 0 1-7.6831-4.4358 7.6831 4.4359 0 0 1 7.6831-4.4359 7.6831 4.4359 0 0 1 7.6831 4.4359z" fill="#404040" stroke-width="2.5954"/> <path transform="rotate(-60)" d="m212.93 734.87a7.1843 4.1479 0 0 1-7.1843 4.1479 7.1843 4.1479 0 0 1-7.1843-4.1479 7.1843 4.1479 0 0 1 7.1843-4.1479 7.1843 4.1479 0 0 1 7.1843 4.1479z" stroke-width="2.4269"/> </g> <g transform="matrix(.3698 0 0 .3698 458.25 109.69)" stroke-width="1.4627"> <path transform="rotate(-60)" d="m213.43 734.87a7.6831 4.4359 0 0 1-7.6831 4.4358 7.6831 4.4359 0 0 1-7.6831-4.4358 7.6831 4.4359 0 0 1 7.6831-4.4359 7.6831 4.4359 0 0 1 7.6831 4.4359z" fill="#404040" stroke="#404040" stroke-linecap="round" stroke-linejoin="bevel" stroke-miterlimit="4" stroke-width="2.5954"/> </g> <path d="m729.9 182.35 5.0932 2.8939 3.0572-5.5329-4.901-2.8056z" fill="#404040"/> <g transform="matrix(.3698 0 0 .3698 463.19 112.52)" stroke="#404040" stroke-linecap="round" stroke-linejoin="bevel" stroke-miterlimit="4"> <path transform="rotate(-60)" d="m213.43 734.87a7.6831 4.4359 0 0 1-7.6831 4.4358 7.6831 4.4359 0 0 1-7.6831-4.4358 7.6831 4.4359 0 0 1 7.6831-4.4359 7.6831 4.4359 0 0 1 7.6831 4.4359z" fill="#404040" stroke-width="2.5954"/> <path transform="rotate(-60)" d="m212.93 734.87a7.1843 4.1479 0 0 1-7.1843 4.1479 7.1843 4.1479 0 0 1-7.1843-4.1479 7.1843 4.1479 0 0 1 7.1843-4.1479 7.1843 4.1479 0 0 1 7.1843 4.1479z" stroke-width="2.4269"/> </g> <g transform="matrix(.3698 0 0 .3698 458.25 109.69)" stroke-width="1.4627"> <path transform="rotate(-60)" d="m213.43 734.87a7.6831 4.4359 0 0 1-7.6831 4.4358 7.6831 4.4359 0 0 1-7.6831-4.4358 7.6831 4.4359 0 0 1 7.6831-4.4359 7.6831 4.4359 0 0 1 7.6831 4.4359z" fill="#404040" stroke="#404040" stroke-linecap="round" stroke-linejoin="bevel" stroke-miterlimit="4" stroke-width="2.5954"/> </g> </g> <path d="m811.62 131.83c0 0.37179-0.52202 0.67318-1.166 0.67318-0.64395 0-1.166-0.30139-1.166-0.67318 0-0.0166 1e-3 -0.0332 3e-3 -0.0495 0.0173-0.13781 0.14526-0.65428 0.26095-0.75962 0.19579-0.17826 0.52992 0.13594 0.90192 0.13594 0.37519 0 0.65836-0.34147 0.87164-0.18254 0.14096 0.10505 0.27991 0.67862 0.29273 0.81995 1e-3 0.0118 2e-3 0.0238 2e-3 0.0358z" fill="#404040"/> <g transform="matrix(.12736 0 0 .12736 721.45 110.93)" stroke-width="1.1521"> <path d="m706.23 158.85c0 2.353-3.3038 4.2604-7.3793 4.2604s-7.3793-1.9074-7.3793-4.2604 3.3038-4.2604 7.3793-4.2604 7.3793 1.9074 7.3793 4.2604z" fill="#808080"/> <path d="m702.79 158.85c0 1.256-1.7635 2.2741-3.9389 2.2741s-3.9389-1.0182-3.9389-2.2741 1.7635-2.2741 3.9389-2.2741 3.9389 1.0181 3.9389 2.2741z" fill="#404040"/> </g> </g> <g transform="matrix(2.8819 0 0 2.8819 -1845.8 -233.59)"> <path d="m803.39 125.03h1.0744v2.0677h-1.0744z" fill="#bfbfbf"/> <g transform="matrix(.0073721 0 0 .0073659 800.98 120.77)" stroke-width="1.4523"> <path d="m729.9 182.35 5.0932 2.8939 3.0572-5.5329-4.901-2.8056z" fill="#404040"/> <g transform="matrix(.3698 0 0 .3698 463.19 112.52)" stroke="#404040" stroke-linecap="round" stroke-linejoin="bevel" stroke-miterlimit="4"> <path transform="rotate(-60)" d="m213.43 734.87a7.6831 4.4359 0 0 1-7.6831 4.4358 7.6831 4.4359 0 0 1-7.6831-4.4358 7.6831 4.4359 0 0 1 7.6831-4.4359 7.6831 4.4359 0 0 1 7.6831 4.4359z" fill="#404040" stroke-width="2.5768"/> <path transform="rotate(-60)" d="m212.93 734.87a7.1843 4.1479 0 0 1-7.1843 4.1479 7.1843 4.1479 0 0 1-7.1843-4.1479 7.1843 4.1479 0 0 1 7.1843-4.1479 7.1843 4.1479 0 0 1 7.1843 4.1479z" stroke-width="2.4095"/> </g> <g transform="matrix(.3698 0 0 .3698 458.25 109.69)" stroke-width="1.4523"> <path transform="rotate(-60)" d="m213.43 734.87a7.6831 4.4359 0 0 1-7.6831 4.4358 7.6831 4.4359 0 0 1-7.6831-4.4358 7.6831 4.4359 0 0 1 7.6831-4.4359 7.6831 4.4359 0 0 1 7.6831 4.4359z" fill="#404040" stroke="#404040" stroke-linecap="round" stroke-linejoin="bevel" stroke-miterlimit="4" stroke-width="2.5768"/> </g> <path d="m729.9 182.35 5.0932 2.8939 3.0572-5.5329-4.901-2.8056z" fill="#404040"/> <g transform="matrix(.3698 0 0 .3698 463.19 112.52)" stroke-width="1.4523"> <path transform="rotate(-60)" d="m213.43 734.87a7.6831 4.4359 0 0 1-7.6831 4.4358 7.6831 4.4359 0 0 1-7.6831-4.4358 7.6831 4.4359 0 0 1 7.6831-4.4359 7.6831 4.4359 0 0 1 7.6831 4.4359z" fill="#404040" stroke="#404040" stroke-linecap="round" stroke-linejoin="bevel" stroke-miterlimit="4" stroke-width="2.5768"/> <path transform="rotate(-60)" d="m214.35 735.31a8.656 4.9975 0 0 1-8.656 4.9975 8.656 4.9975 0 0 1-8.656-4.9975 8.656 4.9975 0 0 1 8.656-4.9975 8.656 4.9975 0 0 1 8.656 4.9975z" fill="#808080"/> </g> <g transform="matrix(.3698 0 0 .3698 458.25 109.69)" stroke-width="1.4523"> <path transform="rotate(-60)" d="m213.43 734.87a7.6831 4.4359 0 0 1-7.6831 4.4358 7.6831 4.4359 0 0 1-7.6831-4.4358 7.6831 4.4359 0 0 1 7.6831-4.4359 7.6831 4.4359 0 0 1 7.6831 4.4359z" fill="#404040" stroke="#404040" stroke-linecap="round" stroke-linejoin="bevel" stroke-miterlimit="4" stroke-width="2.5768"/> </g> </g> <path d="m802.65 122.66 2.5591-1.4775" fill="#808080" stroke="#bbb" stroke-linecap="round" stroke-linejoin="miter" stroke-miterlimit="4" stroke-width=".31988"/> <path d="m802.65 124.13 2.5591-1.4775v0" fill="#808080" stroke="#bbb" stroke-linecap="round" stroke-linejoin="miter" stroke-miterlimit="4" stroke-width=".31988"/> <path d="m804.46 127.1a0.53721 0.31016 0 0 1-0.53721 0.31016 0.53721 0.31016 0 0 1-0.53721-0.31016 0.53721 0.31016 0 0 1 0.53721-0.31016 0.53721 0.31016 0 0 1 0.53721 0.31016z" fill="#bfbfbf"/> <path d="m804.46 125.03a0.53721 0.31016 0 0 1-0.53721 0.31015 0.53721 0.31016 0 0 1-0.53721-0.31015 0.53721 0.31016 0 0 1 0.53721-0.31017 0.53721 0.31016 0 0 1 0.53721 0.31017z" fill="#808080"/> <path d="m803.93 124.89v-3.9394" fill="#808080" stroke="#bbb" stroke-linecap="round" stroke-linejoin="miter" stroke-miterlimit="4" stroke-width=".30156"/> </g> <g transform="matrix(2.8819 0 0 2.8819 -1847.2 -234.3)"> <path d="m806.53 127.45 2.5591-1.4775" fill="#808080" stroke="#bbb" stroke-linecap="round" stroke-linejoin="miter" stroke-miterlimit="4" stroke-width=".31988"/> <path d="m807.27 128.27h1.0744v2.0677h-1.0744z" fill="#bfbfbf"/> <path d="m808.35 130.34a0.53721 0.31016 0 0 1-0.53721 0.31015 0.53721 0.31016 0 0 1-0.53721-0.31015 0.53721 0.31016 0 0 1 0.53721-0.31016 0.53721 0.31016 0 0 1 0.53721 0.31016z" fill="#bfbfbf"/> <path d="m808.35 128.27a0.53721 0.31016 0 0 1-0.53721 0.31016 0.53721 0.31016 0 0 1-0.53721-0.31016 0.53721 0.31016 0 0 1 0.53721-0.31016 0.53721 0.31016 0 0 1 0.53721 0.31016z" fill="#808080"/> <path d="m807.81 125.23v2.955" fill="#808080" stroke="#bbb" stroke-linecap="round" stroke-linejoin="miter" stroke-miterlimit="4" stroke-width=".31988"/> </g> <path d="m502.57 159.11 5.2066-3.006" fill="#808080" stroke="#bbb" stroke-linecap="round" stroke-linejoin="miter" stroke-miterlimit="4" stroke-width=".6508"/> <path d="m499.33 157.21 5.2066-3.006" fill="#808080" stroke="#bbb" stroke-linecap="round" stroke-linejoin="miter" stroke-miterlimit="4" stroke-width=".6508"/> </g> <g transform="matrix(1.4508 0 0 -1.4551 -660.75 223.42)" fill="none" stroke="#bbf0fe" stroke-linecap="round" stroke-linejoin="miter" stroke-miterlimit="4" stroke-width=".29251"> <path d="m538.41 47.984c5.8583-2.0709 6.9454-1.2218 5.1432 0.92876"/> <path d="m511.06 58.449c7.8035-3.53 21.904-10.296 30.324-12.259 5.6488-1.3174 5.8324 0.30952 2.7919 3.5552"/> </g> </g> </svg>